<svg width="1776" height="683" viewBox="0 0 1776 683" fill="none" xmlns="http://www.w3.org/2000/svg">
<g clip-path="url(#clip0_223_2)">
<path d="M657.333 622.667C641.333 632 622.667 640 602.667 646.667C554.667 664 501.333 672 444 672H0V260H206.667V502.667H444C472 502.667 498.667 498.667 522.667 490.667C546.667 482.667 566.667 472 584 458.667C590.667 453.333 597.333 446.667 604 440L657.333 622.667Z" fill="url(#paint0_linear_223_2)"/>
<path d="M636 282.667C629.333 254.667 573.333 182.667 444 182.667H0L130.667 10.6665H444C688 10.6665 793.333 105.333 850.667 340C857.333 368 864 396 869.333 422.667C880 400 892 374.667 906.667 346.667C920 318.667 938.667 282.667 962.667 240L1050.67 73.3332C1060 57.3332 1068 43.9999 1077.33 34.6665C1085.33 25.3332 1094.67 17.3332 1104 11.9999C1113.33 6.66654 1124 3.99988 1134.67 1.33321C1145.33 -0.00012207 1156 -0.00012207 1168 -0.00012207C1180 -0.00012207 1192 -0.00012207 1202.67 1.33321C1213.33 3.99988 1222.67 6.66654 1233.33 11.9999C1242.67 17.3332 1252 25.3332 1260 34.6665C1269.33 43.9999 1278.67 57.3332 1286.67 73.3332L1374.67 241.333C1386.67 264 1398.67 284 1408 301.333C1416 318.667 1425.33 334.667 1432 349.333C1440 364 1445.33 376 1452 388C1457.33 400 1462.67 412 1468 422.667C1473.33 396 1480 369.333 1486.67 340C1494.67 310.667 1504 277.333 1513.33 241.333L1576 10.6665H1776L1604 592C1594.67 622.667 1580 646.667 1558.67 661.333C1538.67 676 1514.67 682.667 1489.33 682.667C1462.67 682.667 1441.33 677.333 1422.67 664C1404 652 1389.33 634.667 1377.33 613.333L1270.67 425.333C1256 400 1244 377.333 1233.33 358.667C1222.67 338.667 1213.33 321.333 1204 305.333C1196 290.667 1188 276 1182.67 264C1176 250.667 1169.33 238.667 1164 226.667C1158.67 238.667 1153.33 250.667 1146.67 264C1140 276 1133.33 290.667 1125.33 305.333C1117.33 321.333 1106.67 338.667 1097.33 357.333C1086.67 377.333 1073.33 398.667 1058.67 425.333L953.333 613.333C941.333 634.667 926.667 650.667 908 664C890.667 677.333 868 682.667 840 682.667C814.667 682.667 792 676 770.667 661.333C749.333 646.667 734.667 622.667 725.333 592L636 282.667Z" fill="url(#paint1_linear_223_2)"/>
</g>
<defs>
<linearGradient id="paint0_linear_223_2" x1="328.667" y1="664.013" x2="328.667" y2="267.964" gradientUnits="userSpaceOnUse">
<stop stop-color="#FD5F00"/>
<stop offset="1" stop-color="#F7BF25"/>
</linearGradient>
<linearGradient id="paint1_linear_223_2" x1="888" y1="26.8665" x2="888" y2="655.795" gradientUnits="userSpaceOnUse">
<stop stop-color="#0B143B"/>
<stop offset="1" stop-color="#008DFF"/>
</linearGradient>
<clipPath id="clip0_223_2">
<rect width="1776" height="682.667" fill="white"/>
</clipPath>
</defs>
</svg>
