<svg width="1350" height="520" viewBox="0 0 1350 520" fill="none" xmlns="http://www.w3.org/2000/svg">
<g clip-path="url(#clip0_223_12)">
<path d="M500 474.667C486.667 481.333 472 486.667 457.333 492C421.333 505.333 380 512 337.333 512H0V197.333H156V382.667H337.333C358.667 382.667 378.667 380 396 373.333C414.667 368 430.667 360 444 349.333C449.333 345.333 453.333 340 458.667 334.667L500 474.667ZM482.667 216C477.333 193.333 434.667 138.667 337.333 138.667H0L98.6667 7.99997H337.333C522.667 7.99997 602.667 80 646.667 258.667C652 280 656 301.333 660 322.667C668 304 677.333 285.333 688 264C700 242.667 713.333 216 730.667 182.667L798.667 56C805.333 44 812 33.3333 818.667 26.6666C825.333 20 832 13.3333 838.667 9.33331C846.667 5.33331 854.667 2.66664 862.667 1.33331C870.667 -2.71201e-05 878.667 -2.71201e-05 888 -2.71201e-05C897.333 -2.71201e-05 906.667 -2.71201e-05 914.667 1.33331C922.667 2.66664 929.333 5.33331 937.333 9.33331C944 13.3333 950.667 20 958.667 26.6666C965.333 33.3333 972 44 978.667 56L1045.33 184C1054.67 201.333 1062.67 216 1069.33 229.333C1077.33 242.667 1082.67 254.667 1089.33 266.667C1094.67 277.333 1098.67 286.667 1104 296C1108 305.333 1112 313.333 1116 322.667C1120 302.667 1125.33 281.333 1130.67 258.667C1136 237.333 1142.67 212 1150.67 184L1197.33 7.99997H1349.33L1220 450.667C1212 474.667 1201.33 492 1185.33 502.667C1169.33 514.667 1152 520 1132 520C1112 520 1094.67 514.667 1081.33 505.333C1068 496 1056 482.667 1046.67 466.667L965.333 324C954.667 305.333 945.333 288 937.333 273.333C929.333 258.667 922.667 245.333 916 233.333C909.333 221.333 904 210.667 898.667 201.333C893.333 192 889.333 182.667 885.333 173.333C880 182.667 876 192 872 201.333C866.667 210.667 861.333 221.333 854.667 233.333C849.333 245.333 841.333 257.333 833.333 272C825.333 286.667 816 304 805.333 324L724 466.667C714.667 482.667 704 496 690.667 505.333C676 514.667 658.667 520 638.667 520C618.667 520 601.333 514.667 585.333 502.667C569.333 492 558.667 474.667 550.667 450.667L482.667 216Z" fill="#F7F7F7"/>
</g>
<defs>
<clipPath id="clip0_223_12">
<rect width="1349.33" height="520" fill="white"/>
</clipPath>
</defs>
</svg>
